<svg width="80" height="74" viewBox="0 0 80 74" fill="none" xmlns="http://www.w3.org/2000/svg">
<path fill-rule="evenodd" clip-rule="evenodd" d="M0 3C0 1.34315 1.34315 0 3 0H45C46.1046 0 47 0.89543 47 2V10H66.3303C67.0529 10 67.7192 10.3897 68.0735 11.0195L78.2021 29.0259C79.3808 31.1214 80 33.4852 80 35.8895V53.4286V58C80 60.2091 78.2091 62 76 62H71.8272C71.9406 62.598 72 63.2151 72 63.8462C72 69.284 67.5917 73.6923 62.1538 73.6923C56.716 73.6923 52.3077 69.284 52.3077 63.8462C52.3077 63.2151 52.367 62.598 52.4805 62H27.5195C27.6329 62.598 27.6923 63.2151 27.6923 63.8462C27.6923 69.284 23.284 73.6923 17.8462 73.6923C12.4083 73.6923 8 69.284 8 63.8462C8 63.2151 8.05936 62.598 8.17279 62H6C2.68629 62 0 59.3137 0 56V54V53.2857V39V3ZM13.281 62C13.0502 62.5701 12.9231 63.1933 12.9231 63.8462C12.9231 66.5651 15.1272 68.7692 17.8462 68.7692C20.5651 68.7692 22.7692 66.5651 22.7692 63.8462C22.7692 63.1933 22.6422 62.5701 22.4114 62H13.281ZM66.7191 62H57.5886C57.3579 62.5701 57.2308 63.1933 57.2308 63.8462C57.2308 66.5651 59.4349 68.7692 62.1539 68.7692C64.8728 68.7692 67.0769 66.5651 67.0769 63.8462C67.0769 63.1933 66.9498 62.5701 66.7191 62ZM50 13H61.7639C62.5215 13 63.214 13.428 63.5528 14.1056L73 33H49V14C49 13.4477 49.4477 13 50 13Z" fill="white"/>
</svg>
