<svg width="61" height="48" viewBox="0 0 61 48" fill="none" xmlns="http://www.w3.org/2000/svg">
<path d="M5.65909 18.2983C4.86932 18.2983 4.14773 18.1449 3.49432 17.8381C2.84091 17.5256 2.32102 17.0767 1.93466 16.4915C1.5483 15.9006 1.35511 15.1847 1.35511 14.3438C1.35511 13.696 1.47727 13.1506 1.72159 12.7074C1.96591 12.2642 2.3125 11.9006 2.76136 11.6165C3.21023 11.3324 3.74148 11.108 4.35511 10.9432C4.96875 10.7784 5.64489 10.6506 6.38352 10.5597C7.11648 10.4687 7.7358 10.3892 8.24148 10.321C8.75284 10.2528 9.14205 10.1449 9.40909 9.99716C9.67614 9.84943 9.80966 9.6108 9.80966 9.28125V8.97443C9.80966 8.08239 9.54261 7.38068 9.00852 6.86932C8.48011 6.35227 7.71875 6.09375 6.72443 6.09375C5.78125 6.09375 5.01136 6.30114 4.41477 6.71591C3.82386 7.13068 3.40909 7.61932 3.17045 8.18182L1.73011 7.66193C2.02557 6.94602 2.43466 6.375 2.95739 5.94886C3.48011 5.51705 4.06534 5.20739 4.71307 5.01989C5.3608 4.8267 6.01705 4.73011 6.68182 4.73011C7.18182 4.73011 7.7017 4.79545 8.24148 4.92614C8.78693 5.05682 9.29261 5.28409 9.75852 5.60795C10.2244 5.92614 10.6023 6.37216 10.892 6.94602C11.1818 7.5142 11.3267 8.2358 11.3267 9.1108V18H9.80966V15.929H9.71591C9.53409 16.3153 9.2642 16.6903 8.90625 17.054C8.5483 17.4176 8.09943 17.7159 7.55966 17.9489C7.01989 18.1818 6.38636 18.2983 5.65909 18.2983ZM5.86364 16.9091C6.67045 16.9091 7.36932 16.7301 7.96023 16.3722C8.55114 16.0142 9.00568 15.5398 9.32386 14.9489C9.64773 14.3523 9.80966 13.696 9.80966 12.9801V11.0881C9.69602 11.196 9.50568 11.2926 9.23864 11.3778C8.97727 11.4631 8.6733 11.5398 8.3267 11.608C7.9858 11.6705 7.64489 11.7244 7.30398 11.7699C6.96307 11.8153 6.65625 11.8551 6.38352 11.8892C5.64489 11.9801 5.0142 12.1222 4.49148 12.3153C3.96875 12.5085 3.56818 12.7756 3.28977 13.1165C3.01136 13.4517 2.87216 13.8835 2.87216 14.4119C2.87216 15.2074 3.15625 15.8239 3.72443 16.2614C4.29261 16.6932 5.00568 16.9091 5.86364 16.9091ZM19.0185 18.2983C18.2287 18.2983 17.5071 18.1449 16.8537 17.8381C16.2003 17.5256 15.6804 17.0767 15.294 16.4915C14.9077 15.9006 14.7145 15.1847 14.7145 14.3438C14.7145 13.696 14.8366 13.1506 15.081 12.7074C15.3253 12.2642 15.6719 11.9006 16.1207 11.6165C16.5696 11.3324 17.1009 11.108 17.7145 10.9432C18.3281 10.7784 19.0043 10.6506 19.7429 10.5597C20.4759 10.4687 21.0952 10.3892 21.6009 10.321C22.1122 10.2528 22.5014 10.1449 22.7685 9.99716C23.0355 9.84943 23.169 9.6108 23.169 9.28125V8.97443C23.169 8.08239 22.902 7.38068 22.3679 6.86932C21.8395 6.35227 21.0781 6.09375 20.0838 6.09375C19.1406 6.09375 18.3707 6.30114 17.7741 6.71591C17.1832 7.13068 16.7685 7.61932 16.5298 8.18182L15.0895 7.66193C15.3849 6.94602 15.794 6.375 16.3168 5.94886C16.8395 5.51705 17.4247 5.20739 18.0724 5.01989C18.7202 4.8267 19.3764 4.73011 20.0412 4.73011C20.5412 4.73011 21.0611 4.79545 21.6009 4.92614C22.1463 5.05682 22.652 5.28409 23.1179 5.60795C23.5838 5.92614 23.9616 6.37216 24.2514 6.94602C24.5412 7.5142 24.6861 8.2358 24.6861 9.1108V18H23.169V15.929H23.0753C22.8935 16.3153 22.6236 16.6903 22.2656 17.054C21.9077 17.4176 21.4588 17.7159 20.919 17.9489C20.3793 18.1818 19.7457 18.2983 19.0185 18.2983ZM19.223 16.9091C20.0298 16.9091 20.7287 16.7301 21.3196 16.3722C21.9105 16.0142 22.3651 15.5398 22.6832 14.9489C23.0071 14.3523 23.169 13.696 23.169 12.9801V11.0881C23.0554 11.196 22.8651 11.2926 22.598 11.3778C22.3366 11.4631 22.0327 11.5398 21.6861 11.608C21.3452 11.6705 21.0043 11.7244 20.6634 11.7699C20.3224 11.8153 20.0156 11.8551 19.7429 11.8892C19.0043 11.9801 18.3736 12.1222 17.8509 12.3153C17.3281 12.5085 16.9276 12.7756 16.6491 13.1165C16.3707 13.4517 16.2315 13.8835 16.2315 14.4119C16.2315 15.2074 16.5156 15.8239 17.0838 16.2614C17.652 16.6932 18.3651 16.9091 19.223 16.9091ZM28.7386 18V4.90909H30.2642V18H28.7386ZM29.5142 2.65909C29.2017 2.65909 28.9347 2.55398 28.7131 2.34375C28.4915 2.12784 28.3807 1.86932 28.3807 1.56818C28.3807 1.26705 28.4915 1.01136 28.7131 0.801136C28.9347 0.585227 29.2017 0.477272 29.5142 0.477272C29.8267 0.477272 30.0938 0.585227 30.3153 0.801136C30.5369 1.01136 30.6477 1.26705 30.6477 1.56818C30.6477 1.86932 30.5369 2.12784 30.3153 2.34375C30.0938 2.55398 29.8267 2.65909 29.5142 2.65909ZM12.3409 37.642L9.01705 37.8466C8.96023 37.5625 8.83807 37.3068 8.65057 37.0795C8.46307 36.8466 8.21591 36.6619 7.90909 36.5256C7.60795 36.3835 7.24716 36.3125 6.8267 36.3125C6.2642 36.3125 5.78977 36.4318 5.40341 36.6705C5.01705 36.9034 4.82386 37.2159 4.82386 37.608C4.82386 37.9205 4.94886 38.1847 5.19886 38.4006C5.44886 38.6165 5.87784 38.7898 6.4858 38.9205L8.85511 39.3977C10.1278 39.6591 11.0767 40.0795 11.7017 40.6591C12.3267 41.2386 12.6392 42 12.6392 42.9432C12.6392 43.8011 12.3864 44.554 11.8807 45.2017C11.3807 45.8494 10.6932 46.3551 9.81818 46.7188C8.94886 47.0767 7.94602 47.2557 6.80966 47.2557C5.0767 47.2557 3.69602 46.8949 2.66761 46.1733C1.64489 45.446 1.04545 44.4574 0.869318 43.2074L4.44034 43.0199C4.5483 43.5483 4.80966 43.9517 5.22443 44.2301C5.6392 44.5028 6.17045 44.6392 6.81818 44.6392C7.45455 44.6392 7.96591 44.517 8.35227 44.2727C8.74432 44.0227 8.94318 43.7017 8.94886 43.3097C8.94318 42.9801 8.80398 42.7102 8.53125 42.5C8.25852 42.2841 7.83807 42.1193 7.26989 42.0057L5.00284 41.554C3.72443 41.2983 2.77273 40.8551 2.14773 40.2244C1.52841 39.5937 1.21875 38.7898 1.21875 37.8125C1.21875 36.9716 1.44602 36.2472 1.90057 35.6392C2.3608 35.0312 3.00568 34.5625 3.83523 34.233C4.67045 33.9034 5.64773 33.7386 6.76705 33.7386C8.42045 33.7386 9.72159 34.0881 10.6705 34.7869C11.625 35.4858 12.1818 36.4375 12.3409 37.642ZM21.8885 33.9091V36.6364H14.005V33.9091H21.8885ZM15.7947 30.7727H19.4254V42.9773C19.4254 43.3125 19.4766 43.5739 19.5788 43.7614C19.6811 43.9432 19.8232 44.071 20.005 44.1449C20.1925 44.2187 20.4084 44.2557 20.6527 44.2557C20.8232 44.2557 20.9936 44.2415 21.1641 44.2131C21.3345 44.179 21.4652 44.1534 21.5561 44.1364L22.1271 46.8381C21.9453 46.8949 21.6896 46.9602 21.3601 47.0341C21.0305 47.1136 20.63 47.1619 20.1584 47.179C19.2834 47.2131 18.5163 47.0966 17.8572 46.8295C17.2038 46.5625 16.6953 46.1477 16.3317 45.5852C15.968 45.0227 15.7891 44.3125 15.7947 43.4545V30.7727ZM30.0277 47.2557C28.7038 47.2557 27.5589 46.9744 26.593 46.4119C25.6328 45.8437 24.8913 45.054 24.3686 44.0426C23.8459 43.0256 23.5845 41.8466 23.5845 40.5057C23.5845 39.1534 23.8459 37.9716 24.3686 36.9602C24.8913 35.9432 25.6328 35.1534 26.593 34.5909C27.5589 34.0227 28.7038 33.7386 30.0277 33.7386C31.3516 33.7386 32.4936 34.0227 33.4538 34.5909C34.4197 35.1534 35.1641 35.9432 35.6868 36.9602C36.2095 37.9716 36.4709 39.1534 36.4709 40.5057C36.4709 41.8466 36.2095 43.0256 35.6868 44.0426C35.1641 45.054 34.4197 45.8437 33.4538 46.4119C32.4936 46.9744 31.3516 47.2557 30.0277 47.2557ZM30.0447 44.4432C30.647 44.4432 31.1499 44.2727 31.5533 43.9318C31.9567 43.5852 32.2607 43.1136 32.4652 42.517C32.6754 41.9205 32.7805 41.2415 32.7805 40.4801C32.7805 39.7188 32.6754 39.0398 32.4652 38.4432C32.2607 37.8466 31.9567 37.375 31.5533 37.0284C31.1499 36.6818 30.647 36.5085 30.0447 36.5085C29.4368 36.5085 28.9254 36.6818 28.5107 37.0284C28.1016 37.375 27.7919 37.8466 27.5817 38.4432C27.3771 39.0398 27.2749 39.7188 27.2749 40.4801C27.2749 41.2415 27.3771 41.9205 27.5817 42.517C27.7919 43.1136 28.1016 43.5852 28.5107 43.9318C28.9254 44.2727 29.4368 44.4432 30.0447 44.4432ZM38.8317 47V33.9091H42.3516V36.1932H42.4879C42.7266 35.3807 43.1271 34.767 43.6896 34.3523C44.2521 33.9318 44.8999 33.7216 45.6328 33.7216C45.8146 33.7216 46.0107 33.733 46.2209 33.7557C46.4311 33.7784 46.6158 33.8097 46.7749 33.8494V37.071C46.6044 37.0199 46.3686 36.9744 46.0675 36.9347C45.7663 36.8949 45.4908 36.875 45.2408 36.875C44.7067 36.875 44.2294 36.9915 43.8089 37.2244C43.3942 37.4517 43.0646 37.7699 42.8203 38.179C42.5817 38.5881 42.4624 39.0597 42.4624 39.5938V47H38.8317ZM54.0085 47.2557C52.6619 47.2557 51.5028 46.983 50.5312 46.4375C49.5653 45.8864 48.821 45.108 48.2983 44.1023C47.7756 43.0909 47.5142 41.8949 47.5142 40.5142C47.5142 39.1676 47.7756 37.9858 48.2983 36.9688C48.821 35.9517 49.5568 35.1591 50.5057 34.5909C51.4602 34.0227 52.5795 33.7386 53.8636 33.7386C54.7273 33.7386 55.5313 33.8778 56.2756 34.1562C57.0256 34.429 57.679 34.8409 58.2358 35.392C58.7983 35.9432 59.2358 36.6364 59.5483 37.4716C59.8608 38.3011 60.017 39.2727 60.017 40.3864V41.3835H48.9631V39.1335H56.5994C56.5994 38.6108 56.4858 38.1477 56.2585 37.7443C56.0313 37.3409 55.7159 37.0256 55.3125 36.7983C54.9148 36.5653 54.4517 36.4489 53.9233 36.4489C53.3722 36.4489 52.8835 36.5767 52.4574 36.8324C52.0369 37.0824 51.7074 37.4205 51.4688 37.8466C51.2301 38.267 51.108 38.7358 51.1023 39.2528V41.392C51.1023 42.0398 51.2216 42.5994 51.4602 43.071C51.7045 43.5426 52.0483 43.9062 52.4915 44.1619C52.9347 44.4176 53.4602 44.5455 54.0682 44.5455C54.4716 44.5455 54.8409 44.4886 55.1761 44.375C55.5114 44.2614 55.7983 44.0909 56.0369 43.8636C56.2756 43.6364 56.4574 43.358 56.5824 43.0284L59.9403 43.25C59.7699 44.0568 59.4205 44.7614 58.892 45.3636C58.3693 45.9602 57.6932 46.4261 56.8636 46.7614C56.0398 47.0909 55.0881 47.2557 54.0085 47.2557Z" fill="white"/>
</svg>
