<svg width="555" height="364" viewBox="0 0 555 364" fill="none" xmlns="http://www.w3.org/2000/svg">
<g clip-path="url(#clip0_28_2)">
<path d="M440.574 166.243C443.207 166.243 445.341 164.111 445.341 161.482C445.341 158.853 443.207 156.721 440.574 156.721C437.941 156.721 435.806 158.853 435.806 161.482C435.806 164.111 437.941 166.243 440.574 166.243Z" fill="#F2F2F2"/>
<path d="M371.872 245.971L367.367 361.812C367.367 361.812 352.725 448.411 356.104 450.66C359.483 452.91 356.104 465.281 356.104 465.281L375.25 467.53C375.25 467.53 375.25 458.533 379.755 455.159C384.26 451.785 425.932 293.207 425.932 293.207L468.73 446.162C468.73 446.162 467.604 455.159 470.982 455.159C474.361 455.159 475.487 467.53 475.487 467.53H494.634V455.159C494.634 455.159 500.265 454.034 496.886 445.037C493.508 436.04 481.119 245.971 481.119 245.971L371.872 245.971Z" fill="#194045"/>
<path d="M440.01 79.5205C452.762 79.5205 463.099 69.1982 463.099 56.4649C463.099 43.7316 452.762 33.4092 440.01 33.4092C427.259 33.4092 416.922 43.7316 416.922 56.4649C416.922 69.1982 427.259 79.5205 440.01 79.5205Z" fill="#FFE4BC"/>
<path d="M424.806 69.3985L421.427 104.263L448.457 109.887L455.215 68.2743L424.806 69.3985Z" fill="#FFE4BC"/>
<path d="M452.962 96.3906C452.962 96.3906 446.205 111.011 421.427 95.2659L375.25 245.971C375.25 245.971 437.195 283.085 476.614 254.969L463.099 103.139L452.962 96.3906Z" fill="#598CD9"/>
<path d="M425.932 79.5206L404.533 76.1466L402.281 90.7673C402.281 90.7673 372.998 94.1413 369.619 105.388L372.998 188.613C372.998 188.613 362.861 206.608 371.872 217.855C371.872 217.855 357.23 248.22 368.493 253.844C368.493 253.844 394.397 241.472 410.164 244.846C410.164 244.846 419.174 242.597 419.174 235.849C419.174 229.101 425.932 79.5206 425.932 79.5206Z" fill="#2F2E41"/>
<path d="M451.836 81.7699L464.225 85.1439L465.351 100.889C465.351 100.889 495.76 120.009 496.886 131.255C498.013 142.502 474.361 196.486 474.361 196.486C474.361 196.486 483.371 212.231 479.993 222.353C479.993 222.353 494.634 251.595 485.624 259.467C485.624 259.467 468.73 263.966 466.477 257.218C464.225 250.47 443.952 172.868 452.962 135.754C452.962 135.754 443.952 88.5179 451.836 81.7699Z" fill="#2F2E41"/>
<path d="M464.788 118.397H464.364V106.8C464.364 105.919 464.19 105.046 463.852 104.232C463.514 103.417 463.019 102.677 462.395 102.054C461.771 101.431 461.03 100.936 460.215 100.599C459.399 100.262 458.525 100.088 457.643 100.088H433.039C432.156 100.088 431.282 100.262 430.467 100.599C429.651 100.936 428.91 101.431 428.286 102.054C427.662 102.677 427.167 103.417 426.829 104.232C426.492 105.046 426.318 105.919 426.318 106.8V170.42C426.318 171.301 426.492 172.174 426.829 172.988C427.167 173.802 427.662 174.542 428.286 175.166C428.91 175.789 429.651 176.283 430.467 176.621C431.282 176.958 432.156 177.131 433.039 177.131H457.643C458.525 177.131 459.399 176.958 460.215 176.621C461.03 176.283 461.771 175.789 462.395 175.166C463.019 174.542 463.514 173.802 463.852 172.988C464.19 172.174 464.364 171.301 464.364 170.42V126.651H464.788V118.397Z" fill="white"/>
<path d="M475.487 163.871C475.487 163.871 466.477 134.629 452.962 143.627C439.447 152.624 461.972 177.367 461.972 177.367L475.487 163.871Z" fill="#FFE4BC"/>
<path d="M413.543 142.502C413.543 142.502 429.311 123.383 437.195 132.38C445.079 141.377 423.68 161.621 423.68 161.621L413.543 142.502Z" fill="#FFE4BC"/>
<path d="M372.998 104.263C372.998 104.263 367.367 103.139 363.988 113.261C360.609 123.383 348.22 161.621 348.22 168.369C348.22 175.117 352.725 202.109 377.503 197.611C402.281 193.112 431.563 161.621 431.563 161.621L415.796 138.003L382.008 158.247L372.998 104.263Z" fill="#2F2E41"/>
<path opacity="0.1" d="M377.864 133.42L382.571 157.685L417.485 137.441L384.824 149.813L377.623 131.972L377.864 133.42Z" fill="black"/>
<path opacity="0.1" d="M477.177 157.685L481.682 161.059L483.934 145.313L477.177 157.685Z" fill="black"/>
<path opacity="0.1" d="M372.435 200.422C372.435 200.422 405.516 191.435 421.074 171.748C421.074 171.748 405.096 198.173 372.435 200.422Z" fill="black"/>
<path opacity="0.1" d="M455.778 180.178C455.778 180.178 462.744 214.222 480.66 215.195C480.66 215.195 459.157 221.791 455.778 180.178Z" fill="black"/>
<path d="M492.381 126.757C492.381 126.757 495.76 129.006 498.013 139.128C500.265 149.25 514.906 187.489 509.275 196.486C503.644 205.483 494.634 225.727 475.487 212.231L456.341 177.367L475.487 159.372L483.371 164.995L492.381 126.757Z" fill="#2F2E41"/>
<path d="M417.845 62.3124C417.845 62.3124 398.482 30.9743 419.107 29.3444C425.989 28.8637 432.71 27.035 438.886 23.9627C445.722 20.4886 454.328 17.848 458.908 23.1958C460.906 25.6412 463.236 27.7966 465.83 29.5998C469.853 32.2639 474.508 36.5826 471.93 41.2154L467.705 48.8103L461.789 64.0001C463.167 57.4483 463.202 51.9473 459.677 49.2322C459.677 49.2322 440.01 57.5896 430.099 42.4812C419.004 34.1685 415.474 60.3332 417.845 62.3124Z" fill="#3F3E45"/>
<path d="M445.642 128.444C448.752 128.444 451.273 125.926 451.273 122.82C451.273 119.715 448.752 117.197 445.642 117.197C442.532 117.197 440.01 119.715 440.01 122.82C440.01 125.926 442.532 128.444 445.642 128.444Z" fill="#B5B1FF"/>
</g>
<rect x="70" y="162.794" width="111" height="111" transform="rotate(-13.9685 70 162.794)" fill="#55AF4D"/>
<rect x="204" y="131.695" width="56.6055" height="111" transform="rotate(-0.703547 204 131.695)" fill="#DE523E"/>
<rect x="158.218" y="80" width="56.6055" height="111" transform="rotate(75 158.218 80)" fill="#544D27"/>
<rect x="262" y="74" width="57" height="89" transform="rotate(90 262 74)" fill="#EFD135"/>
<path fill-rule="evenodd" clip-rule="evenodd" d="M11.5 129C14.9857 129 18.1091 127.449 20.2181 125L35.4398 125L52.5387 184.846L52.5485 184.843L77.8124 278.315C78.0555 279.215 78.3951 280.064 78.8172 280.853L59 322.289L60 322.767V337.289H210V322.289H75.6272L92.623 286.752L259.684 247.126C264.16 246.065 267.635 242.538 268.63 238.047L287.129 154.597C288.816 146.985 282.909 139.81 275.114 140.004L57.271 145.435C56.7957 145.447 56.3288 145.486 55.8715 145.55L46 111L44.8011 111.343V111L20.9881 111C18.9156 107.98 15.4391 106 11.5 106C5.14873 106 0 111.149 0 117.5C0 123.851 5.14873 129 11.5 129ZM87.0941 259L90.8215 272.791L97 271.325L97 259H87.0941ZM86.0129 255H97V238.505L81.6337 238.797L86.0129 255ZM80.5579 234.817L97 234.504V211.371L75 211.79V214.254L80.5579 234.817ZM71 199.455V182.867L66.5395 182.952L71 199.455ZM65.4637 178.971L71 178.866V159.097L60.1651 159.367L65.4637 178.971ZM75 158.997V178.79L97 178.371V158.449L75 158.997ZM101 158.349V178.295L124 177.856V157.776L101 158.349ZM128 157.676V177.78L153 177.304V157.053L128 157.676ZM157 156.953V177.228L182 176.752V156.33L157 156.953ZM186 156.23V176.675L211 176.199V155.607L186 156.23ZM215 155.507V176.123L240 175.647V154.884L215 155.507ZM244 154.784V175.571L268.242 175.109L272.907 154.063L244 154.784ZM267.352 179.127L244 179.571V204.571L261.786 204.232L267.352 179.127ZM260.896 208.25L244 208.571V231.704L255.746 231.48L260.896 208.25ZM247.453 235.639L244 235.705V236.458L247.453 235.639ZM240 237.407V235.781L215 236.257V243.337L240 237.407ZM211 244.285V236.333L186 236.81V250.215L211 244.285ZM182 251.164V236.886L157 237.362V255H165.828L182 251.164ZM148.964 259H128V263.972L148.964 259ZM124 264.921V259H101L101 270.377L124 264.921ZM124 255H101V238.429L124 237.99L124 255ZM153 255H128V237.914L153 237.438V255ZM240 231.78V208.648L215 209.124V232.256L240 231.78ZM211 232.333V209.2L186 209.676V232.809L211 232.333ZM182 232.885V209.752L157 210.229V233.361L182 232.885ZM153 233.437V210.305L128 210.781V233.914L153 233.437ZM124 233.99V210.857L101 211.295V234.428L124 233.99ZM97 207.371L75 207.79L75 182.79L97 182.371V207.371ZM124 206.856L101 207.295V182.295L124 181.857V206.856ZM153 206.304L128 206.78V181.781L153 181.305V206.304ZM182 205.752L157 206.228V181.229L182 180.752V205.752ZM211 205.199L186 205.675V180.676L211 180.2V205.199ZM240 204.647L215 205.123V180.124L240 179.648V204.647Z" fill="#C8FFBA"/>
<circle cx="65" cy="330.289" r="23" stroke="#3D3B3B" stroke-width="10"/>
<circle cx="65" cy="330.289" r="11" fill="#70FFA9"/>
<circle cx="207" cy="330.289" r="23" stroke="#3D3B3B" stroke-width="10"/>
<path d="M218 330.289C218 336.364 213.075 341.289 207 341.289C200.925 341.289 196 336.364 196 330.289C196 324.214 200.925 319.289 207 319.289C213.075 319.289 218 324.214 218 330.289Z" fill="#70FFA9"/>
<defs>
<clipPath id="clip0_28_2">
<rect width="247" height="364" fill="white" transform="translate(308)"/>
</clipPath>
</defs>
</svg>
