<svg width="25" height="25" viewBox="0 0 25 25" fill="none" xmlns="http://www.w3.org/2000/svg">
<g clip-path="url(#clip0_1_53)">
<path fill-rule="evenodd" clip-rule="evenodd" d="M24.8944 10.779C24.6123 8.57232 23.7302 6.48428 22.3432 4.74033C20.3945 2.28871 17.5874 0.6607 14.4842 0.182424C11.381 -0.295853 8.21092 0.410931 5.60895 2.16119C3.00698 3.91144 1.16532 6.57591 0.452894 9.62082C-0.259531 12.6657 0.209898 15.8662 1.76714 18.5811L0 25L6.59733 23.277C8.42344 24.2669 10.4695 24.7855 12.5487 24.7856C14.32 24.7843 16.0706 24.407 17.6838 23.6788C19.297 22.9507 20.7357 21.8884 21.904 20.5629C23.0723 19.2374 23.9433 17.6792 24.459 15.9921C24.9746 14.3049 25.1231 12.5277 24.8944 10.779ZM12.5528 22.7633C10.6947 22.7666 8.87019 22.2706 7.27169 21.3275L6.90608 21.105L2.98993 22.1283L4.03396 18.3304L3.78616 17.9259C2.3673 15.6467 1.89656 12.9066 2.4739 10.2875C3.05123 7.66829 4.63117 5.37631 6.87826 3.89813C9.12535 2.41995 11.8626 1.87198 14.5089 2.37058C17.1552 2.86917 19.5021 4.37506 21.0513 6.56851C21.8973 7.75898 22.4688 9.12074 22.7251 10.5565C23.0041 12.0447 22.9507 13.5758 22.5686 15.0411C22.1866 16.5064 21.4852 17.87 20.5143 19.0351C19.5434 20.2002 18.3268 21.1382 16.9508 21.7825C15.5749 22.4269 14.0733 22.7617 12.5528 22.7633ZM18.2402 14.9126C17.9274 14.7589 16.3999 14.0107 16.1155 13.9055C15.8312 13.8004 15.6199 13.7518 15.4127 14.0592C15.2056 14.3666 14.6003 15.0663 14.4296 15.2726C14.259 15.4789 14.0681 15.5072 13.7553 15.3535C12.8391 14.9871 11.9928 14.4673 11.2528 13.8165C10.5734 13.189 9.99026 12.4653 9.52226 11.6688C9.34352 11.3614 9.52226 11.1916 9.66038 11.0379C9.7985 10.8842 9.97319 10.6779 10.1276 10.4959C10.2558 10.3396 10.3599 10.1651 10.4363 9.97816C10.4781 9.89301 10.4978 9.79876 10.4936 9.70407C10.4893 9.60938 10.4612 9.51726 10.4119 9.43617C10.3347 9.28248 9.71319 7.75764 9.4532 7.13881C9.19321 6.51998 8.93728 6.61705 8.74228 6.60896C8.54729 6.60087 8.33604 6.60896 8.14511 6.60896C7.98904 6.61719 7.83635 6.65735 7.69656 6.72694C7.55677 6.79653 7.43288 6.89405 7.33263 7.01343C6.98115 7.34472 6.70283 7.74526 6.51538 8.18954C6.32794 8.63382 6.23548 9.1121 6.24391 9.59391C6.24391 11.1187 7.357 12.591 7.51137 12.7973C7.66575 13.0036 9.70507 16.1301 12.825 17.4729C13.4046 17.7215 13.9972 17.9389 14.6003 18.1241C15.2345 18.3159 15.9051 18.3575 16.5583 18.2454C17.1555 18.1564 18.3986 17.4972 18.6586 16.7732C18.8642 16.3111 18.9264 15.7984 18.8373 15.3009C18.7439 15.1432 18.5367 15.0663 18.228 14.9126H18.2402Z" fill="white"/>
</g>
<defs>
<clipPath id="clip0_1_53">
<rect width="25" height="25" fill="white"/>
</clipPath>
</defs>
</svg>
