<svg width="130" height="71" viewBox="0 0 130 71" fill="none" xmlns="http://www.w3.org/2000/svg">
<ellipse cx="14" cy="46.5" rx="6" ry="12.5" fill="#151010"/>
<path d="M0 46.5C0 53.4036 7.09644 59 14 59C14 59 12.3339 58.2752 11.5 57.5C11.2952 57.3096 11.0846 57.0642 10.8884 56.8109C10.2417 55.976 9.76367 55.0273 9.29143 54.0829C9.09772 53.6954 8.947 53.288 8.84195 52.8678L8.5 51.5L8.18091 49.2664C8.06046 48.4232 8 47.5725 8 46.7208V45.925L8.12 44L8.5 41.5C8.83234 40.1707 9.30916 38.8817 9.92195 37.6561L10 37.5C10.6342 35.9145 11.9344 34.6885 13.5544 34.1485L14 34C7.09644 34 0 39.5964 0 46.5Z" fill="#664747"/>
<path d="M32.7321 14.6123C35.8411 11.5441 40.355 10.3758 44.5621 11.5503L47.6407 12.4099C59.1436 15.6213 65.4859 27.9378 61.4191 39.1668L61.0291 40.2435C58.9747 45.9162 54.35 50.2771 48.5667 51.9954V51.9954C41.8113 54.0026 35.4806 57.2298 29.8877 61.5174L26.1668 64.3699C23.8589 66.1392 20.6602 63.833 21.6097 61.0843L25.4761 49.8918C27.8015 43.1606 27.2455 35.768 23.9397 29.4602V29.4602C22.6733 27.0439 23.1347 24.0838 25.0764 22.1676L32.7321 14.6123Z" fill="#C48282"/>
<path d="M35.4368 18.3555C37.8528 15.9712 41.3607 15.0632 44.6301 15.976L47.0226 16.6439C55.9617 19.1396 60.8904 28.711 57.73 37.4373L57.427 38.2741C55.8304 42.6824 52.2365 46.0714 47.7421 47.4067V47.4067C42.4924 48.9665 37.5726 51.4744 33.2263 54.8064L30.3347 57.0232C28.5412 58.3981 26.0554 56.6059 26.7933 54.4698L29.798 45.7719C31.6051 40.5409 31.173 34.796 28.604 29.8941V29.8941C27.6199 28.0164 27.9785 25.716 29.4874 24.2269L35.4368 18.3555Z" fill="#FF9F9F"/>
<path d="M14.1304 51.8196L21.513 63.502C21.5697 63.5917 21.7088 63.5424 21.6962 63.4369L21.5695 62.3745C21.4781 61.6086 21.6115 60.8327 21.9534 60.1414C22.3565 59.3261 22.6781 58.473 22.9135 57.5945L23.1869 56.5741C23.2862 56.2037 23.414 55.8416 23.5692 55.491L24.3864 53.6451C27.8772 45.7606 27.7096 36.7372 23.9284 28.9878L23.2091 27.5136L14.9139 38.7234C13.4315 40.7265 12.4341 43.0462 12 45.5C12.1953 47.7464 12.9258 49.9134 14.1304 51.8196Z" fill="#CAABAB"/>
<circle cx="25.5" cy="60.5" r="1.5" fill="#372424"/>
<ellipse rx="6" ry="12.5" transform="matrix(-1 0 0 1 115.911 46.5)" fill="#151010"/>
<path d="M129.911 46.5C129.911 53.4036 122.814 59 115.911 59C115.911 59 117.577 58.2752 118.411 57.5C118.615 57.3096 118.826 57.0642 119.022 56.8109C119.669 55.976 120.147 55.0273 120.619 54.0829C120.813 53.6954 120.964 53.288 121.069 52.8678L121.411 51.5L121.73 49.2664C121.85 48.4232 121.911 47.5725 121.911 46.7208V45.925L121.791 44L121.411 41.5C121.078 40.1707 120.601 38.8817 119.989 37.6561L119.911 37.5C119.276 35.9145 117.976 34.6885 116.356 34.1485L115.911 34C122.814 34 129.911 39.5964 129.911 46.5Z" fill="#664747"/>
<path d="M97.1785 14.6123C94.0696 11.5441 89.5556 10.3758 85.3485 11.5503L82.2699 12.4099C70.767 15.6213 64.4247 27.9378 68.4915 39.1668L68.8815 40.2435C70.936 45.9162 75.5606 50.2771 81.344 51.9954V51.9954C88.0993 54.0026 94.4301 57.2298 100.023 61.5174L103.744 64.3699C106.052 66.1392 109.25 63.833 108.301 61.0843L104.434 49.8918C102.109 43.1606 102.665 35.768 105.971 29.4602V29.4602C107.237 27.0439 106.776 24.0838 104.834 22.1676L97.1785 14.6123Z" fill="#C48282"/>
<path d="M94.4739 18.3555C92.0578 15.9712 88.55 15.0632 85.2805 15.976L82.8881 16.6439C73.949 19.1396 69.0202 28.711 72.1806 37.4373L72.4837 38.2741C74.0803 42.6824 77.6742 46.0714 82.1685 47.4067V47.4067C87.4183 48.9665 92.338 51.4744 96.6843 54.8064L99.5759 57.0232C101.369 58.3981 103.855 56.6059 103.117 54.4698L100.113 45.7719C98.3056 40.5409 98.7376 34.796 101.307 29.8941V29.8941C102.291 28.0164 101.932 25.716 100.423 24.2269L94.4739 18.3555Z" fill="#FF9F9F"/>
<path d="M115.78 51.8196L108.398 63.502C108.341 63.5917 108.202 63.5424 108.214 63.4369L108.341 62.3745C108.432 61.6086 108.299 60.8327 107.957 60.1414C107.554 59.3261 107.233 58.473 106.997 57.5945L106.724 56.5741C106.624 56.2037 106.497 55.8416 106.341 55.491L105.524 53.6451C102.033 45.7606 102.201 36.7372 105.982 28.9878L106.702 27.5136L114.997 38.7234C116.479 40.7265 117.477 43.0462 117.911 45.5C117.715 47.7464 116.985 49.9134 115.78 51.8196Z" fill="#CAABAB"/>
<circle r="1.5" transform="matrix(-1 0 0 1 104.411 60.5)" fill="#372424"/>
</svg>
