<svg width="86" height="95" viewBox="0 0 86 95" fill="none" xmlns="http://www.w3.org/2000/svg">
<path fill-rule="evenodd" clip-rule="evenodd" d="M42.4349 35.8248C38.9633 35.8248 36.149 38.6391 36.149 42.1107V43.6786C33.921 44.2439 32.1578 46.0606 31.7254 48.4077L29.347 61.3192C28.6678 65.0063 31.4986 68.4062 35.2477 68.4062H49.8987C53.6478 68.4062 56.4786 65.0063 55.7994 61.3193L53.421 48.4077C52.9709 45.9642 51.0784 44.0956 48.7208 43.6154V42.1107C48.7208 38.6391 45.9065 35.8248 42.4349 35.8248ZM47.2208 43.4947V42.1107C47.2208 39.4675 45.078 37.3248 42.4349 37.3248C39.7917 37.3248 37.649 39.4675 37.649 42.1107V43.4947H47.2208Z" fill="white"/>
<path d="M42.4116 53.0454C45.3679 53.0454 47.7645 49.7271 47.7645 45.6337H37.0587C37.0587 49.7271 39.4552 53.0454 42.4116 53.0454Z" fill="#C7C7C7"/>
<path fill-rule="evenodd" clip-rule="evenodd" d="M20.1765 11.784C18.8431 12.5538 18.8431 14.4783 20.1765 15.2481L40.1176 26.7611C41.451 27.5309 43.1176 26.5687 43.1176 25.0291V17.5184C48.2542 17.578 53.1129 18.7511 57.4723 20.804C61.1953 22.5572 64.559 24.9546 67.4184 27.8541C73.6021 34.1247 77.4118 42.7244 77.4118 52.2219C77.4118 71.3894 61.8734 86.9278 42.7059 86.9278C23.5384 86.9278 8 71.3894 8 52.2219C8 50.0128 6.20914 48.2219 4 48.2219C1.79086 48.2219 0 50.0128 0 52.2219C0 75.8077 19.1201 94.9278 42.7059 94.9278C66.2917 94.9278 85.4118 75.8077 85.4118 52.2219C85.4118 40.5381 80.7145 29.9435 73.1145 22.2368C69.6019 18.6748 65.4659 15.7256 60.8806 13.5663C55.4779 11.0221 49.458 9.57797 43.1176 9.51797V2.00298C43.1176 0.463382 41.451 -0.498867 40.1176 0.270933L20.1765 11.784Z" fill="white"/>
</svg>
