<svg width="59" height="71" viewBox="0 0 59 71" fill="none" xmlns="http://www.w3.org/2000/svg">
<path fill-rule="evenodd" clip-rule="evenodd" d="M29.0308 0C21.6093 0 15.593 6.01627 15.593 13.4377V16.4413C11.0389 16.7223 7.21613 20.0713 6.37995 24.6105L0.168425 58.3302C-0.963559 64.4753 3.75452 70.1419 10.003 70.1419H48.6553C54.9037 70.1419 59.6218 64.4753 58.4898 58.3302L52.2783 24.6105C51.4058 19.8743 47.282 16.4339 42.4685 16.4222V13.4377C42.4685 6.01627 36.4522 0 29.0308 0ZM39.4685 16.4221V13.4377C39.4685 7.67312 34.7953 3 29.0308 3C23.2662 3 18.593 7.67313 18.593 13.4377V16.4221H39.4685Z" fill="white"/>
<path d="M29.0307 37.3131C36.4479 37.3131 42.4607 29.2961 42.4607 19.4066H15.6008C15.6008 29.2961 21.6136 37.3131 29.0307 37.3131Z" fill="#C7C7C7"/>
</svg>
