<svg width="34" height="31" viewBox="0 0 34 31" fill="none" xmlns="http://www.w3.org/2000/svg">
<path fill-rule="evenodd" clip-rule="evenodd" d="M32.971 1.95484C33.4982 1.79028 33.7921 1.22949 33.6276 0.702297C33.463 0.1751 32.9022 -0.118872 32.375 0.0456919L28.1179 1.37455C27.8879 1.44635 27.7023 1.59357 27.5798 1.78053C27.5595 1.81152 27.5374 1.84138 27.5138 1.86994C27.4207 1.98255 27.3509 2.11742 27.3139 2.26886L26.487 5.64565C26.4322 5.86938 26.2317 6.02673 26.0013 6.02673H2.00113C0.682385 6.02673 -0.275381 7.28069 0.0716041 8.55297L3.82546 22.3171C4.06277 23.1872 4.85309 23.7909 5.75499 23.7909H23.5523C24.5188 23.7909 25.3471 23.0996 25.52 22.1487L28.0876 8.02673L28.4469 6.05081L29.0913 3.41916C29.133 3.24897 29.2607 3.11301 29.4279 3.0608L32.971 1.95484ZM2.65576 8.02673C2.32607 8.02673 2.08663 8.34022 2.17338 8.65829L5.65451 21.4224C5.71384 21.64 5.91142 21.7909 6.13689 21.7909L23.135 21.7909C23.3766 21.7909 23.5837 21.6181 23.6269 21.3803L25.9477 8.61618C26.0035 8.30926 25.7677 8.02673 25.4557 8.02673H2.65576ZM22.0348 29.2506C22.8204 29.2506 23.4572 28.6138 23.4572 27.8282C23.4572 27.0427 22.8204 26.4058 22.0348 26.4058C21.2493 26.4058 20.6124 27.0427 20.6124 27.8282C20.6124 28.6138 21.2493 29.2506 22.0348 29.2506ZM22.0348 30.2506C23.3727 30.2506 24.4572 29.1661 24.4572 27.8282C24.4572 26.4904 23.3727 25.4058 22.0348 25.4058C20.697 25.4058 19.6124 26.4904 19.6124 27.8282C19.6124 29.1661 20.697 30.2506 22.0348 30.2506ZM7.64679 29.3448C8.43235 29.3448 9.06918 28.708 9.06918 27.9224C9.06918 27.1368 8.43235 26.5 7.64679 26.5C6.86123 26.5 6.22441 27.1368 6.22441 27.9224C6.22441 28.708 6.86123 29.3448 7.64679 29.3448ZM7.64679 30.3448C8.98464 30.3448 10.0692 29.2602 10.0692 27.9224C10.0692 26.5845 8.98464 25.5 7.64679 25.5C6.30894 25.5 5.22441 26.5845 5.22441 27.9224C5.22441 29.2602 6.30894 30.3448 7.64679 30.3448Z" fill="white"/>
</svg>
