<svg width="51" height="51" viewBox="0 0 51 51" fill="none" xmlns="http://www.w3.org/2000/svg">
<rect x="8" y="12" width="36" height="25.2" rx="2" fill="#C0A92D"/>
<path d="M8 35.2C8 36.3046 8.89543 37.2 10 37.2H42C43.1046 37.2 44 36.3046 44 35.2V33.6L29.517 19.8793C28.0298 18.4703 25.7184 18.4128 24.1629 19.7461L8 33.6V35.2Z" fill="#DEC53B"/>
<path d="M8 14C8 12.8954 8.89543 12 10 12H42C43.1046 12 44 12.8954 44 14V15.6L27.5286 25.8593C26.8964 26.2531 26.0977 26.263 25.4559 25.8849L8 15.6V14Z" fill="#F4DA4D"/>
</svg>
